<svg width="100" height="45" viewBox="0 0 100 45" fill="none" xmlns="http://www.w3.org/2000/svg">
<g clip-path="url(#clip0_94_1616)">
<path d="M0.526439 44.507C0.530844 29.8404 0.51102 15.1739 0.535249 0.507324C30.9141 0.524522 61.293 0.51019 91.6718 0.513057C91.6718 11.743 91.6718 22.9729 91.6718 34.2029C90.0154 34.2 88.3612 34.2057 86.7049 34.2C86.7071 24.9764 86.7049 15.7529 86.7049 6.5293C59.6322 6.52357 32.5573 6.51497 5.48459 6.53503C5.4912 17.229 5.46697 27.9201 5.4956 38.614C35.2775 38.6685 65.0595 38.6054 94.8414 38.6455C94.8546 25.9653 94.837 13.285 94.8502 0.604776C96.456 0.630573 98.0639 0.619108 99.6696 0.613375C99.674 15.2455 99.6718 29.8748 99.6718 44.507C66.6234 44.507 33.5749 44.5041 0.526439 44.507Z" fill="#00519E"/>
<path d="M8.06836 11.1275C9.83047 11.1074 11.608 11.1848 13.3701 11.1275C14.3657 15.851 15.1366 20.6513 16.0815 25.395C17.4516 20.7717 18.381 15.9255 19.3061 11.1275C20.9271 11.1052 22.4077 11.1275 24.0287 11.1275C24.9428 15.8596 25.9339 20.6456 26.8921 25.3634C27.9538 20.6513 28.8745 15.8848 29.8789 11.1497C31.5419 11.144 33.2049 11.1469 34.8679 11.1497C33.1806 18.8341 31.5309 26.53 29.8326 34.2087C28.2049 34.1943 26.5771 34.2001 24.9472 34.2058C23.5793 29.7631 22.6872 25.1112 21.6124 20.5424C20.5947 25.0997 19.5771 29.6571 18.5353 34.2058C16.8855 34.2001 15.2357 34.1943 13.5881 34.2087C11.7401 26.5271 9.90977 18.8119 8.06836 11.1275Z" fill="#00519E"/>
<path d="M37.7358 11.1469C39.2336 11.1469 40.7314 11.1469 42.2292 11.1469C42.2358 18.8312 42.227 26.5156 42.2336 34.2C40.7336 34.2029 39.2336 34.2 37.7336 34.2029C37.7336 26.5185 37.727 18.8341 37.7358 11.1469Z" fill="#00519E"/>
<path d="M46.9889 11.1469C48.4668 11.1469 49.9448 11.1469 51.4228 11.1497C51.4602 13.973 51.3501 16.8048 51.4801 19.6252C53.5858 16.865 55.5946 13.9787 57.6453 11.1469C59.6409 11.1497 61.6365 11.144 63.632 11.1497C61.262 14.2023 58.8633 17.2147 56.4713 20.2357C59.0726 24.879 61.6342 29.5596 64.2356 34.2C62.3964 34.2058 60.555 34.1972 58.7157 34.2058C56.9889 31.0558 55.2752 27.8886 53.5285 24.7558C52.8303 25.6386 52.121 26.507 51.4228 27.387C51.425 29.6599 51.4228 31.93 51.425 34.2029C49.9448 34.2029 48.4668 34.2 46.9889 34.2058C46.9867 26.5185 46.9845 18.8341 46.9889 11.1469Z" fill="#00519E"/>
<path d="M77.4339 11.1353C75.3348 11.1669 73.239 11.1044 71.1399 11.1274C69.0253 18.8146 66.8755 26.5127 64.7522 34.1943C66.4835 34.2172 68.2137 34.1842 69.9449 34.2157C70.3899 32.5017 70.7731 30.7591 71.2114 29.0422C73.2951 29.0422 75.3811 29.0579 77.467 29.035C77.815 30.7949 78.3051 32.496 78.75 34.2158C80.5672 34.1814 82.3844 34.2215 84.2015 34.1871C83.9086 32.9345 83.5154 31.7279 83.1608 30.504C81.2423 24.0521 79.3788 17.5729 77.4339 11.1353ZM74.2346 16.8965C74.933 19.3589 75.6298 21.8628 76.2567 24.3712C74.9614 24.3712 73.5991 24.4247 72.3568 24.3845C72.9185 21.8623 73.5343 19.419 74.2346 16.8965V16.8965Z" fill="#00519E"/>
</g>
<defs>
<clipPath id="clip0_94_1616">
<rect width="100" height="45" fill="white"/>
</clipPath>
</defs>
</svg>
