<svg width="145" height="40" viewBox="0 0 145 40" fill="none" xmlns="http://www.w3.org/2000/svg">
<g clip-path="url(#clip0_94_1622)">
<path d="M101.015 33.3955H107.21L102.752 23.5529C105.219 22.2164 106.619 19.6561 106.619 16.2668C106.619 11.217 104.043 7.90299 98.9422 7.90299H89.162V33.3955H94.5415V24.5609H97.2607L101.015 33.3955ZM101.242 16.2668C101.242 18.0703 100.288 19.37 98.2965 19.37H94.5415V13.166H98.2965C100.288 13.1667 101.242 14.4639 101.242 16.2668V16.2668ZM79.5209 15.0771V23.2251C79.5209 26.9036 78.1212 28.2015 76.299 28.2015C74.4793 28.2015 73.0491 26.9036 73.0491 23.26V15.0771H67.5555V23.5858C67.5555 30.291 70.443 33.9714 76.2995 33.9714C82.1855 33.9714 85.0179 30.291 85.0179 23.6219V15.0771H79.5209ZM73.0496 7.90299H67.557V12.6996H73.0496V7.90299ZM79.5209 12.6978H85.0159V7.90112H79.5209V12.6978ZM44.9109 24.7761L42.1356 7.90299H36.6696L41.7156 33.3955H47.517L50.9081 16.773L54.2987 33.3955H60.1016L65.1451 7.90299H59.6801L56.9048 24.7761L53.4577 7.90299H48.3575L44.9109 24.7761ZM139.48 17.0249H132.808V7.90299H127.316V33.3955H132.808V22.7973H139.48V33.3955H145V7.90299H139.48V17.0249ZM113.752 13.454V33.3955H119.244V13.454H124.344V7.90299H108.651V13.454H113.752Z" fill="#010101"/>
<path d="M28.3915 15.6692H0V0.0118408H11.816V6.16856H16.5764V0.0118408H28.3915V15.6692ZM16.5764 33.8582V39.9882C23.3721 38.3464 28.3915 30.7307 28.3915 22.1785V21.8557H0V22.1785C0 30.7307 5.02328 38.3464 11.816 39.9882V33.8582H16.5764Z" fill="#E21F26"/>
</g>
<defs>
<clipPath id="clip0_94_1622">
<rect width="145" height="40" fill="white"/>
</clipPath>
</defs>
</svg>
